<?xml version="1.0" standalone="no"?>
<!DOCTYPE svg PUBLIC "-//W3C//DTD SVG 20010904//EN"
 "http://www.w3.org/TR/2001/REC-SVG-20010904/DTD/svg10.dtd">
<svg version="1.0" xmlns="http://www.w3.org/2000/svg"
 width="728.000000pt" height="728.000000pt" viewBox="0 0 728.000000 728.000000"
 preserveAspectRatio="xMidYMid meet">
<metadata>
Created by potrace 1.11, written by Peter Selinger 2001-2013
</metadata>
<g transform="translate(0.000000,728.000000) scale(0.100000,-0.100000)"
fill="#000000" stroke="none">
<path d="M3367 6990 c-6 -16 -15 -30 -19 -30 -4 0 -8 -5 -8 -11 0 -16 -103
-223 -112 -227 -5 -2 -8 -8 -8 -14 0 -14 -83 -181 -93 -189 -5 -3 -8 -8 -6
-10 3 -6 -364 -743 -374 -750 -5 -3 -7 -8 -6 -10 2 -2 -110 -232 -249 -511
-138 -278 -252 -511 -252 -516 0 -6 -4 -12 -8 -14 -9 -3 -92 -173 -92 -187 0
-5 -3 -11 -8 -13 -6 -2 -152 -292 -152 -302 0 -1 846 -3 1880 -3 l1879 0 -19
26 c-11 14 -32 40 -47 58 -15 17 -44 50 -63 74 -41 50 -103 125 -129 154 -9
11 -48 58 -86 105 -39 47 -72 87 -75 90 -5 5 -143 170 -170 203 -8 10 -23 28
-34 40 -10 12 -35 42 -55 67 -20 25 -41 50 -47 56 -5 6 -26 30 -45 54 -18 23
-42 52 -52 63 -11 12 -35 42 -55 66 -21 25 -64 77 -97 116 -33 39 -78 93 -100
120 -42 51 -93 112 -110 131 -5 7 -19 22 -29 35 -11 13 -31 38 -45 55 -14 17
-44 52 -66 79 -22 27 -47 56 -55 65 -8 9 -33 38 -55 65 -21 28 -42 52 -45 55
-3 3 -34 41 -70 85 -35 44 -67 82 -70 85 -3 3 -39 46 -80 95 -41 50 -79 95
-85 101 -5 6 -26 30 -45 54 -19 24 -40 48 -45 54 -6 6 -40 47 -75 91 -36 44
-75 91 -87 105 -33 38 -55 64 -93 110 -34 42 -144 173 -165 196 -5 7 -19 24
-29 38 -24 34 -35 33 -49 -4z"/>
<path d="M1700 3644 c0 -4 111 -140 140 -172 9 -9 47 -55 85 -102 38 -47 72
-87 75 -90 3 -3 48 -57 100 -120 52 -63 97 -117 100 -120 4 -3 49 -57 101
-120 51 -63 104 -126 115 -140 12 -14 70 -83 130 -155 59 -71 113 -135 119
-141 5 -6 43 -52 84 -103 41 -50 79 -91 83 -91 5 0 7 -4 4 -9 -4 -5 -3 -11 1
-13 7 -3 95 -107 189 -224 27 -34 138 -170 337 -412 28 -34 53 -62 56 -62 3 0
110 210 236 466 127 257 235 476 242 488 7 11 17 32 23 45 25 57 132 270 138
276 4 4 7 10 7 13 0 4 67 140 148 304 81 163 147 301 147 306 0 6 3 12 8 14 5
2 82 152 82 161 0 1 -619 2 -1375 2 -756 0 -1375 -1 -1375 -1z"/>
<path d="M1407 3068 c-9 -13 -46 -86 -84 -163 -37 -77 -71 -141 -75 -143 -5
-2 -8 -10 -8 -17 0 -8 -13 -37 -30 -65 -16 -28 -30 -53 -30 -56 0 -11 -125
-259 -132 -262 -5 -2 -8 -8 -8 -12 0 -10 -141 -302 -150 -310 -3 -3 -25 -48
-50 -100 -25 -52 -48 -96 -52 -98 -5 -2 -8 -8 -8 -14 0 -15 -103 -222 -112
-226 -5 -2 -8 -8 -8 -14 0 -15 -83 -182 -92 -186 -5 -2 -8 -8 -8 -12 0 -14
-104 -225 -112 -228 -5 -2 -8 -9 -8 -15 0 -15 -43 -101 -52 -105 -5 -2 -8 -9
-8 -15 0 -12 -40 -98 -50 -107 -3 -3 -14 -25 -25 -50 -10 -25 -25 -52 -32 -61
-7 -8 -13 -20 -13 -25 0 -5 -16 -38 -35 -74 -19 -36 -38 -72 -41 -80 -22 -52
-90 -186 -97 -191 -5 -3 -8 -9 -8 -13 1 -3 -17 -42 -39 -86 -22 -44 -37 -80
-33 -81 5 0 625 -1 1378 -1 l1370 -1 27 39 c14 21 26 41 25 44 0 3 17 39 38
80 21 41 40 77 40 80 3 9 30 64 75 150 24 47 44 87 45 90 1 3 33 69 73 147 39
78 68 143 64 145 -4 2 -23 23 -42 48 -19 25 -38 47 -41 50 -4 3 -46 52 -94
110 -48 58 -104 125 -125 150 -169 202 -224 268 -238 285 -32 39 -117 140
-127 151 -5 7 -26 31 -45 55 -19 24 -44 53 -55 66 -11 12 -30 35 -42 50 -12
15 -32 40 -45 55 -13 14 -39 46 -58 69 -38 47 -188 227 -250 299 -42 49 -75
90 -88 105 -31 40 -116 141 -121 145 -3 3 -24 28 -46 55 -21 28 -42 52 -45 55
-3 3 -25 30 -50 60 -25 30 -47 57 -50 60 -3 3 -25 30 -49 60 -25 30 -51 62
-58 70 -8 8 -22 25 -33 38 l-19 23 -14 -23z"/>
<path d="M4803 3075 c-7 -8 -13 -21 -13 -29 0 -8 -3 -16 -8 -18 -8 -3 -72
-130 -72 -142 0 -4 -4 -12 -10 -19 -5 -7 -94 -178 -196 -382 -233 -462 -282
-557 -294 -572 -6 -7 -10 -16 -10 -20 -1 -8 -31 -71 -85 -173 -16 -30 -29 -57
-30 -60 -2 -13 -71 -145 -77 -148 -5 -2 -8 -8 -8 -13 0 -14 -104 -223 -112
-227 -5 -2 -8 -8 -8 -14 0 -6 -16 -43 -36 -83 l-36 -74 128 -153 c71 -84 133
-158 139 -164 5 -6 19 -22 30 -35 68 -83 171 -205 175 -209 3 -3 39 -45 80
-95 41 -49 85 -101 97 -115 11 -14 30 -36 40 -49 l19 -23 1327 -2 c730 0 1327
1 1327 4 0 6 -61 82 -108 135 -15 17 -39 46 -53 65 -15 19 -37 47 -50 61 -13
14 -40 46 -60 70 -66 80 -157 188 -171 203 -7 8 -26 32 -43 52 -31 39 -174
211 -248 298 -23 27 -48 58 -56 70 -8 11 -22 27 -30 36 -17 17 -81 94 -116
138 -11 14 -28 32 -37 41 -10 8 -18 19 -18 23 0 4 -10 18 -22 31 -13 13 -32
34 -43 48 -48 58 -370 444 -375 449 -3 3 -25 30 -49 60 -25 30 -51 62 -58 70
-20 23 -58 67 -121 145 -31 39 -64 77 -72 85 -8 8 -33 38 -55 65 -22 28 -44
55 -50 61 -5 6 -26 31 -45 54 -19 24 -42 51 -50 60 -8 9 -32 37 -53 63 -21 25
-43 52 -50 59 -7 7 -30 36 -52 63 -22 28 -47 58 -55 69 -8 10 -22 26 -31 35
-8 9 -44 52 -80 96 -99 123 -102 126 -116 110z"/>
</g>
</svg>
