<?xml version="1.0" standalone="no"?>
<!DOCTYPE svg PUBLIC "-//W3C//DTD SVG 20010904//EN"
 "http://www.w3.org/TR/2001/REC-SVG-20010904/DTD/svg10.dtd">
<svg version="1.0" xmlns="http://www.w3.org/2000/svg"
 width="260.000000pt" height="260.000000pt" viewBox="0 0 260.000000 260.000000"
 preserveAspectRatio="xMidYMid meet">
<metadata>
Created by potrace 1.11, written by Peter Selinger 2001-2013
</metadata>
<g transform="translate(0.000000,260.000000) scale(0.100000,-0.100000)"
fill="#000000" stroke="none">
<path d="M977 2005 c-136 -272 -247 -500 -247 -505 0 -7 230 -10 665 -10 441
0 665 3 665 10 0 11 -816 993 -828 998 -4 1 -118 -221 -255 -493z"/>
<path d="M630 1304 c0 -8 600 -728 610 -732 9 -3 370 708 370 728 0 7 -168 10
-490 10 -269 0 -490 -3 -490 -6z"/>
<path d="M280 610 c-137 -275 -250 -502 -250 -505 0 -3 222 -5 493 -5 l492 0
68 136 c58 116 66 138 55 152 -53 68 -601 722 -604 722 -2 0 -116 -225 -254
-500z"/>
<path d="M1554 758 c-152 -304 -175 -355 -164 -371 6 -11 62 -80 123 -153
l112 -134 479 0 479 0 -20 23 c-11 12 -201 239 -422 505 -221 265 -403 482
-406 482 -3 0 -84 -158 -181 -352z"/>
</g>
</svg>
